<svg width="28" height="29" viewBox="0 0 28 29" fill="none" xmlns="http://www.w3.org/2000/svg">
<g filter="url(#filter0_d_1145_7759)">
<path fill-rule="evenodd" clip-rule="evenodd" d="M11.5 21C12.3284 21 13 20.3284 13 19.5C13 18.6716 12.3284 18 11.5 18C10.6716 18 10 18.6716 10 19.5C10 20.3284 10.6716 21 11.5 21Z" fill="#1A1D1F"/>
<path fill-rule="evenodd" clip-rule="evenodd" d="M19.5 21C20.3284 21 21 20.3284 21 19.5C21 18.6716 20.3284 18 19.5 18C18.6716 18 18 18.6716 18 19.5C18 20.3284 18.6716 21 19.5 21Z" fill="#1A1D1F"/>
<path d="M5 3C4.44772 3 4 3.44772 4 4C4 4.55228 4.44772 5 5 5H5.43845C5.89731 5 6.2973 5.3123 6.40859 5.75746L8.65112 14.7276C8.985 16.0631 10.185 17 11.5616 17H19.3957C20.8018 17 22.0192 16.0234 22.3242 14.6508L23.4353 9.65079C23.8517 7.77725 22.426 6 20.5068 6H8.53078L8.34888 5.27239C8.015 3.93689 6.81505 3 5.43845 3H5Z" fill="#1A1D1F"/>
</g>
<defs>
<filter id="filter0_d_1145_7759" x="-2" y="0" width="32" height="32" filterUnits="userSpaceOnUse" color-interpolation-filters="sRGB">
<feFlood flood-opacity="0" result="BackgroundImageFix"/>
<feColorMatrix in="SourceAlpha" type="matrix" values="0 0 0 0 0 0 0 0 0 0 0 0 0 0 0 0 0 0 127 0" result="hardAlpha"/>
<feOffset dy="4"/>
<feGaussianBlur stdDeviation="2"/>
<feComposite in2="hardAlpha" operator="out"/>
<feColorMatrix type="matrix" values="0 0 0 0 0 0 0 0 0 0 0 0 0 0 0 0 0 0 0.25 0"/>
<feBlend mode="normal" in2="BackgroundImageFix" result="effect1_dropShadow_1145_7759"/>
<feBlend mode="normal" in="SourceGraphic" in2="effect1_dropShadow_1145_7759" result="shape"/>
</filter>
</defs>
</svg>
